<?xml version="1.0" encoding="utf-8"?>
<!-- Generator: Adobe Illustrator 27.3.1, SVG Export Plug-In . SVG Version: 6.00 Build 0)  -->
<svg version="1.1" id="Layer_1" xmlns="http://www.w3.org/2000/svg" xmlns:xlink="http://www.w3.org/1999/xlink" x="0px" y="0px"
	 viewBox="0 0 961.4 1601.4" style="enable-background:new 0 0 961.4 1601.4;" xml:space="preserve">
<style type="text/css">
	.st0{fill-rule:evenodd;clip-rule:evenodd;}
</style>
<g>
	<g>
		<path class="st0" d="M230.8,1400.9c0,6.4-2.4,10.3-9.3,12l-12.4,3v22.3h85.8v-22.3l-18.6-3c-6.9-1.1-8.5-4.9-8.5-12v-34h32.7
			c37.5,0,70.1-20.1,70.1-65.8s-32.4-65.9-70.1-65.9h-91.7v22.3l13,2.8c7,1.5,8.9,5.8,8.9,12.8L230.8,1400.9L230.8,1400.9z
			 M330.7,1301c0,25-12.8,37.8-33.7,37.8h-29v-75.6h29C317.9,1263.2,330.7,1276,330.7,1301L330.7,1301z M744,1398.8
			c-15.5,6.8-31.9,10.9-46.9,10.9c-32.2,0-58.5-18.6-58.5-72.8c0-39.6,7.7-75.2,47.1-75.2c8.8,0,18,1.8,29.1,5.9l5.9,29.6H748
			l4.5-48.7c-23.6-12.9-41.6-16.1-59.9-16.1c-67.6,0-93.9,47.3-93.9,106.5c0,74.8,42.3,101.5,87.7,101.5c22.5,0,42.8-4.9,63-14.4
			L744,1398.8L744,1398.8z M483.1,1440.9c45.9,0,75.5-24.5,75.5-68.2V1271c0-6.6,3.5-9.6,8.3-10.6l13.6-2.9v-22.3h-81.5v22.3
			l13.7,2.9c4.8,1,8.3,4.2,8.3,10.6v97.2c0,34.1-18.9,43.1-38,43.1s-38-9-38-43.1V1271c0-6.5,3.5-9.6,8.3-10.6l13.7-2.9v-22.3h-81.5
			v22.3l13.6,2.9c4.9,1,8.3,4,8.3,10.6v101.7C407.6,1416.4,437.1,1440.9,483.1,1440.9L483.1,1440.9z M561.3,1591.4
			c29.1,0,47.2-21.9,47.2-51.7c0-32-15.9-52.3-47.2-52.3c-29.1,0-47.3,22.5-47.3,52.3C514,1571.6,529.9,1591.4,561.3,1591.4
			L561.3,1591.4z M561.3,1576.7c-18.4,0-26.6-14.6-26.6-37s8.7-37.6,26.6-37.6s26.6,15.2,26.6,37.6S579.7,1576.7,561.3,1576.7
			L561.3,1576.7z M458.4,1590v-11.1l6.3-1.5c3.5-0.8,4.7-2.8,4.7-6v-63.7c0-3.5-1-5.6-4.4-6.4l-6.5-1.4v-11.1h39.3v11.1l-6.5,1.4
			c-3.5,0.8-4.4,3-4.4,6.4v63.7c0,3.2,1.2,5.2,4.6,6l6.3,1.5v11.1H458.4L458.4,1590z M385.6,1571.8l0-21h6.4c4,0,6.5,2.7,8.1,4.9
			l17.5,23.8c5.3,7.2,12.2,11.8,19.9,11.8c3.8,0,7.8-1,11.8-3.2l0-12.5c-1.1,0.6-4.4,1.1-6.5,1.1c-3.5,0-6.7-2.6-11-8.2l-11.7-15.3
			c-2.8-3.7-6-5.1-9.3-5.7c7.4-1.3,24-7.3,24-28.2c0-20.8-14.3-30.6-35.7-30.6h-43v11.1l6.5,1.4c3.5,0.8,4.4,3,4.4,6.4v63.7
			c0,3.2-1.2,5.2-4.6,6l-6.3,1.5v11.1h42.9v-11.1l-9.3-1.5C386.5,1576.8,385.6,1574.9,385.6,1571.8L385.6,1571.8z M385.6,1502.8
			h12.3c9.7,0,17.7,5.9,17.7,16.6c0,10.6-6,17.4-17.7,17.4h-12.3L385.6,1502.8L385.6,1502.8z"/>
	</g>
	<path class="st0" d="M480.7,421.6H237.2v353.2c0,110,60.2,117.3,124.8,133.9c48,12.3,84.8,31.3,118.7,68
		c33.9-36.8,70.7-55.7,118.7-68C664,892,724.2,884.8,724.2,774.7V421.6H480.7L480.7,421.6z M445.9,411.4
		c12.7-11.2,16.2-28.2,16.9-43.4h-52.1c-1,17.4-9.6,33.2-23.1,43.4H445.9L445.9,411.4z M515.5,411.4c-12.7-11.2-16.2-28.2-16.9-43.4
		h52.1c1,17.4,9.6,33.2,23.1,43.4H515.5L515.5,411.4z M767.1,387.4l-42.6,24h-70.4L865,293c5.1-2.9,11.1-2.9,16-0.4
		c6.5,3,10.8,10.9,9.4,17.9c-0.7,5.1-3.8,9.8-8.6,12.6l-11,6.2l48.2,86.1c3.2,5.7,1.1,10-2.8,12.2l-36.4,20.4l-30.5-54.4l21.4-12
		l-8.9-16l-21.4,12l-13.3-23.7l-16.3,9.1l13.3,23.7l-21.4,12l9,16l21.4-12l30.5,54.5l-36.4,20.4c-4.4,2.5-8.6,1.7-11.8-4
		L767.1,387.4L767.1,387.4z M155.4,736.1c14.8,0,26.8,12,26.8,26.8s-12,26.8-26.8,26.8s-26.8-12-26.8-26.8
		C128.6,748.1,140.6,736.1,155.4,736.1L155.4,736.1z M68,734.9c14.8,0,26.8,12,26.8,26.8c0,14.8-12,26.8-26.8,26.8
		c-14.8,0-26.8-12-26.8-26.8C41.2,746.9,53.2,734.9,68,734.9L68,734.9z M112.7,659.8c14.8,0,26.8,12,26.8,26.8
		c0,14.8-12,26.8-26.8,26.8c-14.8,0-26.8-12-26.8-26.8S97.9,659.8,112.7,659.8L112.7,659.8z M227.1,652.8l-56.5,31.7
		c-0.3-8.9-2.7-17.9-7.4-26.2c-15.6-27.9-51-37.9-78.9-22.2c-24.6,13.8-35.3,42.8-26.8,68.7c-6.1,1.1-12.2,3.3-17.9,6.5
		c-27.9,15.7-37.9,51-22.2,78.9C33,818,68.4,828,96.3,812.3c5.7-3.2,10.7-7.3,14.9-11.9c17.6,20.7,47.9,26.8,72.5,13
		c27.9-15.7,37.9-51,22.2-78.9c-4.7-8.3-11.1-15.1-18.5-20l39.6-22.2L227.1,652.8L227.1,652.8z M704.1,296.3v-31h11.9v-11.2h-11.9
		v-14.6H692v14.6h-11.9v11.2H692v31H704.1L704.1,296.3z M724.2,315.1V211.6h-11.2v14h-9.2v-14h-11.2v14h-9.2v-14H672v133.8
		c0,19.9-3.4,39.3-17.3,54.4l34.8-20.1C715,364.9,724.2,347.8,724.2,315.1L724.2,315.1z M257.2,296.3v-31h-11.9v-11.2h11.9v-14.6
		h12.1v14.6h11.9v11.2h-11.9v31H257.2L257.2,296.3z M237.2,315.1c0,32.7,9.2,49.7,34.7,64.5l34.8,20.1c-14-15-17.3-34.5-17.3-54.4
		V211.6h-11.2v14h-9.2v-14h-11.2v14h-9.2v-14h-11.2L237.2,315.1L237.2,315.1z M203.7,1039.3c0.8-1,2.2-1.8,4.3-2.4
		c2.1-0.6,3.5-0.7,4.1-0.1c0.2,0.2,0.6,0.9,1.1,2c1.5,3.6,3.5,6.4,5.9,8.3c4,3.2,7.2,3.2,9.7,0.1c1.1-1.3,1.3-3,0.8-4.9
		c-0.5-1.9-1.4-4-2.7-6.1c-1.2-2.1-2.4-4.4-3.5-6.7c-1-2.3-1.5-5-1.2-7.9c0.2-2.9,1.5-5.8,3.8-8.7c2.3-2.8,5-4.7,8.1-5.5
		c5.7-1.5,11.4,0,17.2,4.6c3.2,2.6,5.6,5.2,7,7.9c1.5,2.7,1.8,4.6,0.9,5.7c-0.7,0.9-2.1,1.8-4,2.5c-1.9,0.7-3.2,0.8-3.9,0.3
		c-0.1-0.1-0.4-0.6-0.8-1.4c-1-2.1-2.8-4.1-5-5.8s-4.1-2.6-5.6-2.5c-1.5,0.1-2.7,0.7-3.6,1.8c-0.9,1.1-1.1,2.7-0.5,4.6
		c0.5,1.9,1.5,3.9,2.7,6s2.4,4.3,3.5,6.7c1.1,2.3,1.5,5,1.3,7.9c-0.2,2.9-1.4,5.7-3.5,8.4s-4.3,4.6-6.6,5.8
		c-2.3,1.2-4.6,1.8-6.9,1.7c-4.4-0.2-8.7-1.9-12.8-5.1c-4.1-3.2-7-6.6-8.8-10C203.1,1042.9,202.8,1040.5,203.7,1039.3L203.7,1039.3z
		 M181.3,1022.8c-1.2,1.3-0.7,3,1.6,5.3l2,2c2.3,2.3,4.1,2.8,5.4,1.5l36.5-37.1c1.2-1.2,0.7-3.1-1.6-5.3l-2-2
		c-2.3-2.3-4.1-2.8-5.4-1.5L181.3,1022.8L181.3,1022.8z M150.7,986.9l39.4-32.6c1.3-1.1,3.1-0.4,5.1,2.1l1.8,2.1
		c2.1,2.5,2.4,4.3,1.1,5.4l-33.8,27.9l11.6,14c1,1.2,0.5,2.8-1.6,4.5l-1.9,1.6c-2.1,1.7-3.7,2-4.7,0.7l-17.5-21.1
		C148.9,989.8,149,988.3,150.7,986.9L150.7,986.9z M140.5,939.7l6.7,10.2l9.5-11.9l3.7-3.9l-0.2-0.3c-2.4,1-4.1,1.6-5,1.9
		L140.5,939.7L140.5,939.7z M113,935.5c-1,0.6-0.6,2.4,1.3,5.1l1.8,2.7c1.2,1.8,2.4,2.5,3.5,2.2l10.1-2.8l10.6,16l-6.5,8.2
		c-0.8,1-0.4,2.5,1.1,4.7l2,3c1.5,2.3,2.8,3,3.7,2.4c0.4-0.2,0.8-0.6,1.1-1l33.7-43.8c0.7-1,0.3-2.6-1.1-4.8l-2.3-3.5
		c-1.5-2.2-2.8-3.2-4-2.9l-53.4,14C113.7,935.2,113.2,935.4,113,935.5L113,935.5z M263.2,1109.9C183.8,1069,107.9,985.1,79.5,908.4
		l78.6-41.8c28.3,62.6,72.1,119.4,139.9,155.7L263.2,1109.9L263.2,1109.9z M698.2,1109.9l-34.8-87.6
		c67.8-36.3,111.5-93.2,139.9-155.7l78.6,41.8C853.4,985.1,777.6,1069,698.2,1109.9L698.2,1109.9z M821.1,975.3
		c1.8,1.3,3.3,1,4.5-0.8l15.9-22.3c0.9-1.3,0.3-2.8-1.9-4.3l-2-1.5c-2.2-1.6-3.8-1.7-4.7-0.4l-10.5,14.8l-35.7-25.4
		c-1.4-1-3.1-0.2-5,2.5l-1.6,2.2c-1.9,2.6-2.1,4.5-0.7,5.5L821.1,975.3L821.1,975.3z M800,1002.3c1.4,1.2,3.1,0.5,5.2-2l1.8-2.2
		c2.1-2.5,2.5-4.3,1.1-5.4l-39.7-33.6c-1.4-1.2-3.1-0.5-5.2,2l-1.8,2.2c-2.1,2.5-2.5,4.3-1.1,5.5L800,1002.3L800,1002.3z
		 M750.9,1050.5c1.2,1.3,3,0.8,5.3-1.4l1.7-1.6c2.4-2.2,3-3.9,1.8-5.2l-22.3-24.2l38.6,9.8c1.7,0.4,3.5-0.3,5.4-2l2.3-2.1
		c2.4-2.2,3-4,1.8-5.2l-35.2-38.3c-1.2-1.3-3-0.8-5.3,1.4l-1.7,1.6c-2.4,2.2-3,3.9-1.8,5.2l22,23.9l-38-9.7c-1.7-0.4-3.5,0.3-5.4,2
		l-2.6,2.4c-2.4,2.2-3,3.9-1.8,5.2L750.9,1050.5L750.9,1050.5z M480.7,1108c-60.1,0-129.7-14.5-186.6-44.8l33.5-88.6
		c49.3,23.7,106.6,38.6,153.1,38.6s103.8-14.9,153.1-38.6l33.5,88.6C610.3,1093.5,540.8,1108,480.7,1108L480.7,1108z M576.8,1072.5
		c0.6,2.1,2,2.8,4.1,2.1l29.9-9.4c1.5-0.5,1.9-2.1,1.1-4.6l-0.7-2.4c-0.8-2.6-2-3.6-3.5-3.2l-21,6.6l-3.9-12.6l18.9-6
		c1.5-0.5,1.9-2.1,1.1-4.6l-0.8-2.4c-0.8-2.6-2-3.6-3.5-3.2l-18.9,6l-3.5-11.3l21-6.6c1.5-0.5,1.9-2.1,1.1-4.6l-0.7-2.4
		c-0.8-2.6-2-3.6-3.5-3.2l-29.8,9.3c-2.1,0.6-2.8,2-2.1,4.1L576.8,1072.5L576.8,1072.5z M504.7,1033.2c0,0.2,0.2,0.7,0.6,1.4
		l25.9,48.7c0.6,1.1,2.2,1.4,4.8,0.9l4.2-0.7c2.6-0.4,4-1.2,4.2-2.4l8.8-54.4c0.1-0.6,0.1-1.1,0-1.5c-0.2-1.2-1.9-1.5-5.1-1
		l-2.5,0.4c-2.6,0.4-4.1,1.5-4.3,3.1l-5.8,39.5l-0.3,0.1l-17.9-35.6c-0.7-1.4-2.5-2-5.1-1.5l-2.7,0.4
		C506.1,1031.1,504.5,1032,504.7,1033.2L504.7,1033.2z M476,1066l12.2-0.1l-4.7-14.4l-1.3-5.2l-0.3,0c-0.5,2.6-0.9,4.3-1.2,5.2
		L476,1066L476,1066z M457.4,1086.7c0,1.2,1.7,1.8,5,1.8l3.3,0c2.1,0,3.4-0.6,3.7-1.7l3.2-9.9l19.2-0.1l3.3,9.9
		c0.4,1.1,1.9,1.7,4.6,1.7l3.6,0c2.7,0,4.1-0.6,4-1.8c0-0.4-0.1-0.9-0.2-1.5l-18.3-52.1c-0.4-1.1-2-1.7-4.6-1.7l-4.2,0
		c-2.7,0-4.2,0.6-4.6,1.7l-17.5,52.4C457.5,1086,457.4,1086.5,457.4,1086.7L457.4,1086.7z M421.8,1050.9l7.7,1
		c1.7,0.2,3.2-0.3,4.6-1.5c1.4-1.2,2.2-2.8,2.5-4.6s-0.2-3.5-1.2-4.8s-2.7-2-4.7-2.3l-7.1-0.9L421.8,1050.9L421.8,1050.9z
		 M405.5,1079.7c-0.2,1.7,1.3,2.8,4.5,3.2l2.8,0.3c3.2,0.4,5-0.2,5.2-2l2.5-19.7l3.2,0.4c2.4,0.3,4.1,0.9,5.1,1.8
		c1,0.9,2,2.2,2.5,4.1l4.3,16.5c0.3,1.2,1.8,1.9,4.5,2.3l3.3,0.4c3.2,0.4,4.9,0.1,5-1c0-0.3,0-0.8-0.2-1.6l-4.8-18.6
		c-0.5-1.8-1.2-3.5-2.1-5.1c-0.9-1.6-1.8-2.6-2.8-3.1l0-0.3c3-0.7,5.6-2.1,7.5-4.1s3.2-4.6,3.5-7.5c1.3-10.1-4.7-16-18.1-17.7
		l-15.7-2c-2.2-0.3-3.4,0.7-3.6,2.8L405.5,1079.7L405.5,1079.7z M349.3,1036.6c-2.8,9.6-2.7,17.3,0.2,23.1
		c2.9,5.8,8.7,9.9,17.4,12.4c3.6,1,7.5,1.7,11.4,2.1c2.2,0.2,4.1,0.1,5.6-0.4c1.6-0.5,2.6-1.4,2.9-2.6l6.2-21.7
		c0.6-2.1-0.1-3.4-2.2-4l-15.9-4.6c-1.6-0.4-2.7,0.6-3.5,3.2l-0.7,2.5c-0.8,2.6-0.3,4.1,1.2,4.6l6.9,2l-2.9,9.9
		c-2.1-0.2-4.2-0.6-6.2-1.2c-8.9-2.5-11.6-9.8-8.2-21.5c3.4-11.8,9.6-16.4,18.6-13.8c3.9,1.1,7.1,2.8,9.6,4.8
		c0.9,0.7,1.4,1.1,1.5,1.1c0.9,0.2,2.3-0.4,4.1-1.9c1.8-1.5,2.8-2.9,3.1-4c0.4-1.5-1-3.3-4.4-5.4s-7-3.7-10.7-4.8
		C366,1011.3,354.7,1018.1,349.3,1036.6L349.3,1036.6z M734.3,652.8l56.5,31.7c0.3-8.9,2.7-17.9,7.4-26.2
		c15.7-27.9,51-37.9,78.9-22.2c24.6,13.8,35.3,42.8,26.8,68.7c6.1,1.1,12.2,3.3,17.9,6.5c27.9,15.7,37.9,51,22.2,78.9
		c-15.7,27.9-51,37.9-78.9,22.2c-5.7-3.2-10.7-7.3-14.9-11.9c-17.6,20.7-47.9,26.8-72.5,13c-27.9-15.7-37.9-51-22.2-78.9
		c4.7-8.3,11.1-15.1,18.5-20l-39.6-22.2V652.8L734.3,652.8z M193.7,387.4l-48.2,86c-3.2,5.7-7.4,6.4-11.8,4L97.2,457l30.5-54.5
		l21.4,12l9-16l-21.4-12l13.3-23.7l-16.3-9.1l-13.3,23.7l-21.4-12l-8.9,16l21.4,12l-30.5,54.4l-36.4-20.4c-3.9-2.2-6-6.5-2.8-12.2
		l48.2-86.1l-11-6.2c-4.9-2.7-7.9-7.5-8.6-12.6c-1.3-7,2.9-14.9,9.4-17.9c4.9-2.4,10.9-2.5,16.1,0.4l210.9,118.4h-70.4L193.7,387.4
		L193.7,387.4z M480.7,330.8c-12.3,0-22.7-6.1-28.6-16.5c-5.9,10.4-16.3,16.5-28.4,16.5s-22.5-6.1-28.4-16.5
		c-3,5.3-7.4,9.8-12.8,12.7l5.8,13.4c5.1,11.8,11.8,18,22.2,18h70.1h70.1c10.3,0,17-6.1,22.2-18l5.8-13.4
		c-5.4-2.9-9.7-7.4-12.8-12.7c-5.9,10.4-16.3,16.5-28.4,16.5s-22.5-6.1-28.4-16.5C503.4,324.7,493,330.8,480.7,330.8L480.7,330.8z
		 M480.7,238.2c6.3,11.2,17.5,17.6,30.4,17.6s24.1-6.4,30.4-17.6c6.3,11.2,18,17.6,30.4,17.6c12.3,0,22.3-5.3,28.8-15.1
		c-0.7,29.4-9.3,55.2-18.2,77.5c-6.9-4.2-11.7-8.5-11.7-19.8h13.3V288h-12.9v-13.1h-10.4V288h-12.8v10.4h13.2
		c0,11.2-10.4,22.9-23.6,22.9S514,310.1,514,298.4h13.4V288h-12.9v-13.1h-10.4V288h-12.8v10.4h13.3c0,11.6-10.3,22.9-23.9,22.9
		c-13.5,0-23.9-11.4-23.9-22.9h13.3V288h-12.8v-13.1h-10.4V288H434v10.4h13.4c0,11.7-10.3,22.9-23.6,22.9
		c-13.3,0-23.6-11.7-23.6-22.9h13.3V288h-12.8v-13.1h-10.4V288h-12.9v10.4h13.3c0,11.3-4.8,15.6-11.7,19.8
		c-8.9-22.3-17.5-48.1-18.2-77.5c6.6,9.8,16.5,15.1,28.9,15.1c12.3,0,24.1-6.4,30.4-17.6c6.3,11.2,17.5,17.6,30.4,17.6
		C463.2,255.8,474.4,249.4,480.7,238.2L480.7,238.2z M480.7,181.9c-12.3,0-22.7-6.1-28.6-16.5c-5.9,10.4-14.1,16.5-28.4,16.5
		c-14.2,0-29.9-8.9-32.8-26.3c-12.4,15.3-20.8,28.2-25.9,47c-0.8,3-1.5,6.1-2.1,9.1h14.3V222h-13.4c0,11.3,11.8,24.3,25.7,24.3
		s25.7-13.1,25.7-24.3h-13.3v-10.4h12.8v-13.2h10.4v13.2H438V222h-13.3c0,11.3,11.6,24.3,25.7,24.3s25.7-13,25.7-24.3h-13.3v-10.4
		h12.8v-13.2h5.2h5.2v13.2h12.8V222h-13.3c0,11.3,11.6,24.3,25.7,24.3s25.7-13,25.7-24.3h-13.3v-10.4h12.8v-13.2h10.4v13.2h12.8V222
		h-13.3c0,11.2,11.8,24.3,25.7,24.3c13.9,0,25.7-13,25.7-24.3h-13.3v-10.4h14.3c-0.6-3.1-1.3-6.1-2.1-9.1
		c-5.1-18.7-13.5-31.7-25.9-47c-2.8,17.4-18.5,26.3-32.8,26.3s-22.4-6.1-28.4-16.5C503.4,175.7,493,181.9,480.7,181.9L480.7,181.9z
		 M496.2,100.3c21.3,10.3,43.3,25,58.7,38.7h-7v10.4h13.3c0,11.8-10.3,22.9-23.6,22.9S514,161.3,514,149.5h13.3v-10.4h-12.9v-13.2
		h-10.4v13.2h-12.8v10.4h13.3c0,11.7-10.3,22.9-23.9,22.9c-13.5,0-23.9-11.3-23.9-22.9h13.3v-10.4h-12.8v-13.2h-10.4v13.2H434v10.4
		h13.3c0,11.8-10.3,22.9-23.6,22.9c-13.3,0-23.6-11.2-23.6-22.9h13.3v-10.4h-7c15.4-13.7,37.5-28.4,58.7-38.7
		c-1.7-2.8-2.7-6.1-2.7-9.6c0-6.8,3.8-12.8,9.3-15.9V51.3h-22.2V33.9h22.2V10h8.9h8.9v23.9h22.2v17.4h-22.2v23.6
		c5.6,3.1,9.3,9.1,9.3,15.9C498.9,94.3,498,97.6,496.2,100.3L496.2,100.3z M806,736.1c-14.8,0-26.8,12-26.8,26.8s12,26.8,26.8,26.8
		s26.8-12,26.8-26.8C832.8,748.1,820.8,736.1,806,736.1L806,736.1z M893.4,734.9c-14.8,0-26.8,12-26.8,26.8s12,26.8,26.8,26.8
		c14.8,0,26.8-12,26.8-26.8S908.2,734.9,893.4,734.9L893.4,734.9z M848.7,659.8c-14.8,0-26.8,12-26.8,26.8s12,26.8,26.8,26.8
		s26.8-12,26.8-26.8S863.5,659.8,848.7,659.8L848.7,659.8z M480.7,832.6c-12.5,0-23.8,9.6-36.5,21.7c-14.3,13.6-32.9,28.9-55.3,22.9
		l28.6-31.2c-11.2-3.7-23.2,1.6-37.2,8c-14.4,5.7-30,11.9-47.5,1.9l41.6-23.1c-17.3-14.7-62.7,13.8-81.3-13.5l61.5-12.7
		c-13.1-19.5-62.4-2.4-74.6-33.3h70.6c-9.7-22.2-65-11.2-74.1-46l74.1,10.4c-9.6-25.3-62.5-22.3-74.1-61.3l74.1,23
		c-6.3-28-65.9-32.2-74.1-78.3l74.1,35.8c-5.8-35.6-67.5-42.7-74.1-92.5l75.9,43.3c-0.9-34.8-71.9-52.4-75.9-104.9l77,52.6
		c-2.1-43.5-71.6-60.6-77-114.2l78.3,47.6c36.2,22,54,44,71.5,89.9c13.2,34.6,28,64.6,54.4,64.6s41.2-30,54.4-64.6
		c17.5-45.9,35.3-67.9,71.5-89.9l78.3-47.6c-5.3,53.6-74.8,70.7-76.9,114.2l76.9-52.6c-4,52.5-75,70.1-75.9,104.9l75.9-43.3
		c-6.5,49.8-68.2,56.9-74.1,92.5l74.1-35.8c-8.2,46-67.8,50.3-74.1,78.3l74.1-23c-11.6,39-64.5,36-74.1,61.3l74.1-10.4
		c-9.1,34.7-64.4,23.8-74.1,46h70.6c-12.2,31-61.5,13.8-74.6,33.3l61.5,12.7c-18.5,27.3-63.9-1.2-81.3,13.5l41.6,23.1
		c-17.5,10-33.1,3.8-47.5-1.9c-13.9-6.4-25.9-11.6-37.2-8l28.6,31.2c-22.3,6-41-9.3-55.3-22.9C504.5,842.2,493.2,832.6,480.7,832.6
		L480.7,832.6z M485.7,669.8h103.5v136.9H485.7V669.8L485.7,669.8z M372.1,669.8h103.5v136.9H372.1V669.8L372.1,669.8z M419.6,698.2
		h7.9c3.4,0,5.3,0.3,6.4,3.2l25.5,68.1c0.4,1,0.5,1.7,0.5,2c0,1.6-2.3,2.4-7,2.4h-3c-3,0-4.8-0.8-5.3-2.3l-4.6-13.2h-16.3h-16.3
		l-4.6,13.2c-0.5,1.5-2.3,2.3-5.3,2.3h-2.9c-4.7,0-7-0.8-7-2.4c0-0.3,0.1-1,0.5-2l25.5-68.1C414.9,698.5,416.2,698.2,419.6,698.2
		L419.6,698.2z M423.9,714.1h0.5l11.2,31h-23.4l11.2-31H423.9L423.9,714.1z M537.5,695.5c22.6,0,34.5,19.3,34.5,35.1
		c0,11.1-4.1,21-14.2,29.2l12.7-0.4c2.2-0.1,3.9,1.3,3.9,4.6v4.3c0,3.6-1.3,5-3.4,5H545c-2.1,0-3.3-1-3.3-4.4v-4.6
		c0-2.1,1-3.3,1.9-4.1c8.2-7.1,13-15.8,13.2-26.5c0.1-11.6-6.1-23.2-19.3-23.2c-13.2,0-19.5,11.6-19.3,23.2
		c0.1,10.8,4.9,19.4,13.2,26.5c0.8,0.7,1.9,2,1.9,4.1v4.6c0,3.3-1.1,4.4-3.3,4.4H504c-2.1,0-3.4-1.3-3.4-5v-4.3
		c0-3.3,1.7-4.7,3.9-4.6l12.7,0.4c-10.2-8.2-14.2-18.1-14.2-29.2C502.9,714.7,514.9,695.5,537.5,695.5z"/>
</g>
</svg>
